<svg xmlns="http://www.w3.org/2000/svg" viewBox="0 0 1635.5 422"><defs><style>.cls-1{fill:#fff;}.cls-2{fill:#c10005;}.cls-3{fill:#c1272d;}</style></defs><title>APTTEST2</title><g id="Layer_2" data-name="Layer 2"><g id="Layer_1-2" data-name="Layer 1"><path class="cls-1" d="M38.36,139.45v143.1a5.18,5.18,0,0,1-5.18,5.18h-.44a5.22,5.22,0,0,1-3.48-1.34C13.31,272,0,248.47,0,211.38,0,174,13.56,150.17,29.71,135.61a5.18,5.18,0,0,1,3.47-1.34h0A5.18,5.18,0,0,1,38.36,139.45Z"/><path class="cls-1" d="M93.44,124.21V297.79a7.74,7.74,0,0,1-6.32,7.6,75.45,75.45,0,0,1-12.86,1.52,54.67,54.67,0,0,1-13.39-2,7.74,7.74,0,0,1-5.79-7.49V124.63a7.75,7.75,0,0,1,5.74-7.47,53.38,53.38,0,0,1,13.44-2.07,75.45,75.45,0,0,1,12.86,1.52A7.74,7.74,0,0,1,93.44,124.21Z"/><rect class="cls-1" x="111.09" y="115.09" width="38.36" height="191.82" rx="18" ry="18"/><path class="cls-1" d="M379.46,211.38c0,37.09-13.3,60.6-29.26,75a5.18,5.18,0,0,1-3.47,1.34h-.45a5.18,5.18,0,0,1-5.18-5.18V139.45a5.18,5.18,0,0,1,5.18-5.18h0a5.18,5.18,0,0,1,3.47,1.34C365.9,150.17,379.46,174,379.46,211.38Z"/><rect class="cls-1" x="473.57" y="94" width="38.36" height="64.42" rx="9.16" ry="9.16" transform="translate(366.54 618.97) rotate(-90)"/><rect class="cls-2" x="170.78" y="178.59" width="38.36" height="65.58" rx="18" ry="18" transform="translate(-21.43 401.34) rotate(-90)"/><rect class="cls-1" x="230.01" y="115.09" width="38.36" height="306.91" rx="18" ry="18"/><path class="cls-1" d="M324.39,124.75V297.31a7.91,7.91,0,0,1-5.91,7.64,54.48,54.48,0,0,1-13.27,2,75.49,75.49,0,0,1-12.74-1.49,7.89,7.89,0,0,1-6.45-7.77V124.34a7.89,7.89,0,0,1,6.45-7.76,75.49,75.49,0,0,1,12.74-1.49,53.12,53.12,0,0,1,13.32,2A7.9,7.9,0,0,1,324.39,124.75Z"/><path class="cls-1" d="M534.13,281.14V303a8.57,8.57,0,0,1-8.57,8.56H487.5a73.69,73.69,0,0,1-73.69-73.69V8.57A8.57,8.57,0,0,1,422.37,0h21.81a8.57,8.57,0,0,1,8.57,8.57V232.86a39.71,39.71,0,0,0,39.71,39.71h33.1A8.57,8.57,0,0,1,534.13,281.14Z"/><path class="cls-3" d="M630.9,290.78q-5.5-5.37-5.5-14v-138H583.19a13.38,13.38,0,0,1-10.49-4.34,14.91,14.91,0,0,1-3.89-10.29,15.28,15.28,0,0,1,4-10.43,13.28,13.28,0,0,1,10.43-4.46H704.64a13.13,13.13,0,0,1,10.3,4.46A15.57,15.57,0,0,1,715,134.3a13.14,13.14,0,0,1-10.36,4.4H662.56v138q0,8.67-5.5,14a18.61,18.61,0,0,1-26.16,0Z"/><path class="cls-3" d="M741.8,289.68a22,22,0,0,1-5.31-14.5v-144q0-9.59,5-15.73t14.18-6.15h92.07a12.6,12.6,0,0,1,10.1,4.4,15.83,15.83,0,0,1,0,20.46,12.63,12.63,0,0,1-10.1,4.4H773.39v47.65h69.28a12.93,12.93,0,0,1,10.23,4.27,14.82,14.82,0,0,1,3.75,10.1,14.63,14.63,0,0,1-3.82,10.1A13,13,0,0,1,842.67,215H773.39v51.93h77.3a12.28,12.28,0,0,1,9.91,4.4,15.47,15.47,0,0,1,3.69,10.23,15.19,15.19,0,0,1-3.69,10.16,12.32,12.32,0,0,1-9.91,4.34H754.75A16.28,16.28,0,0,1,741.8,289.68Z"/><path class="cls-3" d="M884.37,280q-3-2.21-3-7,0-6.33,4.6-12.49t10.16-6.15a8.86,8.86,0,0,1,4.53,1.29q24.21,14.5,50.76,14.51,17,0,27.52-6.09t10.55-18q0-9.84-5.7-15.41t-17.74-9.45l-42.73-14.24q-22.14-7.65-31.92-18.84t-9.77-30.37q0-24.72,20-39.23T953.38,104a124.44,124.44,0,0,1,36,5.24q17.48,5.25,26.8,13.27a12,12,0,0,1,4,9.33,16.21,16.21,0,0,1-3.89,10.55,11.71,11.71,0,0,1-9.32,4.72,13.27,13.27,0,0,1-6.22-1.81,89.33,89.33,0,0,0-45.06-11.91,88.42,88.42,0,0,0-14.56,1.1A50.45,50.45,0,0,0,929,138.05a20.12,20.12,0,0,0-8.68,7,18.8,18.8,0,0,0-3.1,10.88q0,8.16,4.72,13.27t14.44,8.35q.65.27,18.9,5.57t18.91,5.57a157.57,157.57,0,0,1,21.82,8.55A70.39,70.39,0,0,1,1012,208a39,39,0,0,1,10.43,15,54.4,54.4,0,0,1,3.36,19.87q0,26.16-20.13,41.37t-54.06,15.22Q909.36,299.39,884.37,280Z"/><path class="cls-3" d="M1100.23,290.78q-5.51-5.37-5.51-14v-138h-42.21a13.39,13.39,0,0,1-10.49-4.34,14.9,14.9,0,0,1-3.88-10.29,15.23,15.23,0,0,1,3.95-10.43,13.24,13.24,0,0,1,10.42-4.46H1174a13.11,13.11,0,0,1,10.29,4.46,15.59,15.59,0,0,1,.07,20.66,13.16,13.16,0,0,1-10.36,4.4h-42.09v138q0,8.67-5.5,14a18.6,18.6,0,0,1-26.15,0Z"/><path class="cls-3" d="M1216.93,290.58q-5.43-5.29-5.43-14V128.34q0-8.67,5.5-14a18.1,18.1,0,0,1,13-5.31,18.33,18.33,0,0,1,13.08,5.31q5.57,5.31,5.57,14V276.6q0,8.67-5.57,14a18.48,18.48,0,0,1-13.21,5.31A17.92,17.92,0,0,1,1216.93,290.58Z"/><path class="cls-3" d="M1287.06,291.56a15.12,15.12,0,0,1-5-11.85v-148q0-10.37,5.63-16.38a18.29,18.29,0,0,1,13.92-6,24.89,24.89,0,0,1,12.11,3.49,29.14,29.14,0,0,1,10.29,9.58l85.21,118V125.62a15.41,15.41,0,0,1,5-11.85,17.17,17.17,0,0,1,23.31-.06,15.34,15.34,0,0,1,5,11.91V270.77q0,11.14-5.44,18.2a17.13,17.13,0,0,1-14.24,7q-5.57,0-12-3.95A35.56,35.56,0,0,1,1400,282L1315.48,165V279.71a15.11,15.11,0,0,1-5,11.78,17.11,17.11,0,0,1-11.78,4.53A16.84,16.84,0,0,1,1287.06,291.56Z"/><path class="cls-3" d="M1513.52,288.45q-21.11-10.95-32.88-33.09t-11.79-53.6a117.33,117.33,0,0,1,6-38.07,92.28,92.28,0,0,1,17.61-30.95q11.65-13.46,30.3-21.1t42.34-7.64q32,0,55.81,11.39a14.89,14.89,0,0,1,6.08,5.5A13.54,13.54,0,0,1,1629,128a16.34,16.34,0,0,1-3.63,10.42,11.35,11.35,0,0,1-9.32,4.6,9.26,9.26,0,0,1-4.41-1q-26.93-8.3-45.19-8.29-15.4,0-26.8,4.85a43.78,43.78,0,0,0-18.26,14,61.32,61.32,0,0,0-10.1,21.3,108.53,108.53,0,0,0-3.23,27.84q0,68,57.1,68a146.77,146.77,0,0,0,33.67-4V221.44h-27.07a11.61,11.61,0,0,1-9.19-3.82,13.68,13.68,0,0,1-3.37-9.39,14.72,14.72,0,0,1,3.17-9.26,10.61,10.61,0,0,1,8.88-4.07h50.11q14.1,0,14.11,17.48v54.38q0,11.78-4.08,17.22t-13.79,7.77q-34.71,7.63-54.25,7.64Q1534.63,299.39,1513.52,288.45Z"/></g></g></svg>